<svg width="217" height="42" viewBox="0 0 217 42" fill="none" xmlns="http://www.w3.org/2000/svg">
<path d="M0 41.1544V0.789262H19.0543C29.8441 0.789262 36.5591 6.42684 36.5591 15.1087C36.5591 23.7906 29.7867 29.4282 18.9396 29.4282H12.0524V41.1544H0ZM12.0524 20.8591H17.6769C21.7518 20.8591 24.4492 18.604 24.4492 15.1087C24.4492 11.6134 21.7518 9.35839 17.6769 9.35839H12.0524V20.8591Z" fill="black"/>
<path d="M62.4342 42C48.6599 42 39.3623 33.8255 39.3623 20.9718C39.3623 8.11812 48.6599 0 62.4342 0C76.151 0 85.4486 8.11812 85.4486 20.9718C85.4486 33.8255 76.151 42 62.4342 42ZM62.4342 32.247C68.9195 32.247 73.3387 27.7933 73.3387 20.9718C73.3387 14.2067 68.9195 9.69664 62.4342 9.69664C55.9488 9.69664 51.4722 14.2067 51.4722 20.9718C51.4722 27.7933 55.9488 32.247 62.4342 32.247Z" fill="black"/>
<path d="M111.235 42C98.2646 42 88.8522 33.4873 88.8522 20.9718C88.8522 8.45637 98.2646 0 111.235 0C122.255 0 130.921 6.42684 132.184 15.898L120.935 17.0819C120.016 12.7973 116.114 9.69664 111.58 9.69664C105.267 9.69664 100.962 14.2067 100.962 20.9718C101.019 27.7369 105.324 32.247 111.522 32.247C115.999 32.247 120.016 29.2027 120.992 24.9745L132.241 26.2711C131.208 35.6295 122.484 42 111.235 42Z" fill="black"/>
<path d="M137.259 41.1544V0.789262H149.369V16.5181H149.943L161.249 0.789262H175.54L160.445 20.0134L175.712 41.1544H161.421L149.943 23.9597H149.369V41.1544H137.259Z" fill="black"/>
<path d="M190.944 41.1544V27.3987L176.653 0.789262H189.222L196.683 17.0255H197.257L204.259 0.789262H217L203.054 27.3987V41.1544H190.944Z" fill="black"/>
</svg>
